<mxfile host="app.diagrams.net" modified="2023-10-22T00:37:14.817Z" agent="Mozilla/5.0 (Macintosh; Intel Mac OS X 10_15_7) AppleWebKit/537.36 (KHTML, like Gecko) Chrome/118.0.0.0 Safari/537.36" version="22.0.6" etag="r-wKDRU-ya4lQSK5yVbn" type="github">
  <diagram name="Page-1" id="u1hkRrNCJZJL8t9iJEis">
    <mxGraphModel>
      <root>
        <mxCell id="0" />
        <mxCell id="1" parent="0" />
      </root>
    </mxGraphModel>
  </diagram>
</mxfile>
